<svg xmlns="http://www.w3.org/2000/svg" width="90.547" height="40.976" viewBox="0 0 90.547 40.976">
  <g id="logo-en" transform="translate(576.99 87)">
    <path id="Path_239" data-name="Path 239" d="M49.437,55.725H59.6a.479.479,0,0,1,.477.477v.122a2.738,2.738,0,0,1-2.638,2.731l-6.394,0V62.5h6.3c.048,0,.1,0,.145,0h1.592a2.334,2.334,0,0,1,2.332,2.332v.62a.478.478,0,0,1-.477.477H49.437Zm15.412,9.722v-.62a5.763,5.763,0,0,0-2.571-4.8,6.142,6.142,0,0,0,1.236-3.7v-.122A3.921,3.921,0,0,0,59.6,52.29H48.02A2.019,2.019,0,0,0,46,54.308V69.361H60.933a3.918,3.918,0,0,0,3.916-3.914" transform="translate(-622.99 -139.288)" fill="#d31a2b"/>
    <path id="Path_240" data-name="Path 240" d="M166.631,69.354h7.938a2.021,2.021,0,0,0,2.02-2.02V52.28h-3.437V65.918h-6.521a5.721,5.721,0,0,1-5.713-5.713V52.28H157.48V60.2a9.161,9.161,0,0,0,9.152,9.15" transform="translate(-713.269 -139.28)" fill="#d31a2b"/>
    <rect id="Rectangle_32" data-name="Rectangle 32" width="3.438" height="17.074" transform="translate(-532.68 -87)" fill="#d31a2b"/>
    <path id="Path_241" data-name="Path 241" d="M317.87,52.28V69.354H335.2V65.916H321.307V52.28Z" transform="translate(-843.156 -139.28)" fill="#d31a2b"/>
    <path id="Path_242" data-name="Path 242" d="M437.57,61.945a3.976,3.976,0,0,1-3.971,3.971h-8.2v-10.2h8.2a3.976,3.976,0,0,1,3.971,3.971ZM433.6,52.28H423.97a2.012,2.012,0,0,0-2.01,2.01V67.346a2.012,2.012,0,0,0,2.01,2.01H433.6a7.418,7.418,0,0,0,7.409-7.409V59.689A7.417,7.417,0,0,0,433.6,52.28" transform="translate(-927.45 -139.28)" fill="#d31a2b"/>
    <path id="Path_243" data-name="Path 243" d="M420.28,173.04v3.438h7.965v14.364h3.438V176.478h7.963V173.04Z" transform="translate(-926.089 -237.074)" fill="#d31a2b"/>
    <path id="Path_244" data-name="Path 244" d="M311.3,176.487h12.189a.478.478,0,0,1,.477.477V179a2.738,2.738,0,0,1-2.735,2.735h-8.322v3.438h2.537l7.242,5.683h5.565l-7.238-5.683h.217A6.18,6.18,0,0,0,327.4,179v-2.033a3.919,3.919,0,0,0-3.916-3.914H309.88a2.021,2.021,0,0,0-2.02,2.02v15.783H311.3V176.487Z" transform="translate(-835.049 -237.082)" fill="#d31a2b"/>
    <path id="Path_245" data-name="Path 245" d="M201.41,183.15h-12.6v-.959a5.719,5.719,0,0,1,5.713-5.713h6.886v6.672Zm-16.04-.959v8.651h3.438v-4.254h12.6v4.254h3.437V175.06a2.021,2.021,0,0,0-2.02-2.02h-8.3a9.163,9.163,0,0,0-9.153,9.151" transform="translate(-735.854 -237.074)" fill="#d31a2b"/>
    <path id="Path_246" data-name="Path 246" d="M49.437,180.48l6.47,9.8a1.756,1.756,0,0,0,.616.561,1.716,1.716,0,0,0,2.254-.561l6.474-9.8v10.363h3.437V174.759a1.717,1.717,0,0,0-3.151-.947l-8.193,12.4-8.191-12.4a1.717,1.717,0,0,0-3.151.947v16.084h3.438V180.48Z" transform="translate(-622.99 -237.074)" fill="#d31a2b"/>
  </g>
</svg>
